# xmcd
#
# Track frame offsets: 
#        150
#        18853
#        38892
#        55482
#        70907
#        88794
#        108439
#        127117
#        144599
#        162426
#        179477
#        193130
#        208985
#        230022
#        246353
#        265703
#        285866
#        305292
#        323086
#        338576
#
# Disc length: 4792 seconds
#
# Revision: 0
# Processed by: cddbd v1.5.2PL0 Copyright (c) Steve Scherf et al.
# Submitted via: ExactAudioCopy v0.99pb4
#
DISCID=2b12b614
DTITLE=Various Artist - 100 Hits - Disco Classics - CD5
DYEAR=2011
DGENRE=Disco
TTITLE0=The Manhattan Transfer - Twilight Zone
TTITLE1=Deodato - Whistle Bump
TTITLE2=First Choice - The Player
TTITLE3=Rose Royce - Do Your Dance (Part 1)
TTITLE4=Zapp - More Ounce To The Bounce
TTITLE5=Sparks - Beat The Clock
TTITLE6=Gary's Gang - Do It At The Disco
TTITLE7=Janis Ian - Fly To High
TTITLE8=Mick Jackson - Blame It On The Boogie
TTITLE9=Inner Life - Ain't No Mountain High Enough
TTITLE10=The O'Jays - Darlin' Darlin' Baby Sweet Tender Love
TTITLE11=The Salsoul Orchestra - Nice 'n' Nasty
TTITLE12=Kleeer - Get Tough
TTITLE13=Phreek - Weekend
TTITLE14=Herbie Mann - Hijack
TTITLE15=Aquarian Dream - You're A Star
TTITLE16=Luisa Fernandez - Lay Love On You
TTITLE17=Change - A Lover's Holiday
TTITLE18=The Undisputed Truth - You and Me =Love
TTITLE19=Carol Williams - Love Is You
EXTD=
EXTT0=
EXTT1=
EXTT2=
EXTT3=
EXTT4=
EXTT5=
EXTT6=
EXTT7=
EXTT8=
EXTT9=
EXTT10=
EXTT11=
EXTT12=
EXTT13=
EXTT14=
EXTT15=
EXTT16=
EXTT17=
EXTT18=
EXTT19=
PLAYORDER=
